<svg height="512px" style="enable-background:new 0 0 512 512;" version="1.1" viewBox="0 0 512 512" width="512px" xml:space="preserve" xmlns="http://www.w3.org/2000/svg" xmlns:xlink="http://www.w3.org/1999/xlink"><path d="M256.064,0h-0.128l0,0C114.784,0,0,114.816,0,256c0,56,18.048,107.904,48.736,150.016l-32,112l115.328-30.496  C172.096,499.52,212.608,512,256.064,512C397.216,512,512,397.152,512,256S397.216,0,256.064,0z" style="fill:#4CAF50;"/><path d="M405.024,361.504c-6.176,17.44-30.688,31.904-50.24,36.128c-13.376,2.848-30.848,5.12-89.664-19.264  C189.888,347.2,141.44,270.752,137.664,265.792c-3.616-4.96-30.4-40.48-30.4-77.216s18.656-54.624,26.176-62.304  c6.176-6.304,16.384-9.184,26.176-9.184c8.8,0,15.424,1.152,21.248,3.328c5.824,2.176,41.536,20.192,41.536,48.288  c0,28.096-24.128,49.28-27.136,53.056c-2.912,3.776-4.352,6.112-2.176,8.896c2.176,2.784,9.568,14.368,29.152,33.952  c28.032,28.384,52.32,38.528,60.032,42.24c7.712,3.712,12.032,1.856,15.744-1.856c3.712-3.712,16.832-19.2,21.536-25.28  c4.704-6.176,9.536-5.248,15.744-2.176c6.208,3.072,36.544,17.728,42.56,21.376C419.328,341.536,419.328,351.008,405.024,361.504z" style="fill:#FAFAFA;"/></svg>
